<?xml version="1.0" encoding="UTF-8"?>
<svg id="Capa_1" data-name="Capa 1" xmlns="http://www.w3.org/2000/svg" viewBox="0 0 600 600">
  <defs>
    <style>
      .cls-1 {
        fill: #fff;
      }
    </style>
  </defs>
  <path class="cls-1" d="M273.8,364.23c-10.39,2.07-32.09,4.94-57.62-2.95-27.48-8.5-44.49-24.86-51.69-32.68v66.37c12.2,8.01,35.39,20.97,67.47,25.78,32.28,4.84,63.36-.05,77.38-4.16-10.19-17.2-25.36-35.16-35.55-52.36Z"/>
  <g>
    <path class="cls-1" d="M262.45,287.64c2.28-11.95,12.96-20.41,24.72-19.91,9.85.42,18.5,7.04,21.74,16.42.68,1.98.79,4.11.46,6.18-2.08,13.14-6.93,61.02,27.25,101.69,31.83,37.87,75.26,43.03,85.21,43.9.43.04.85.05,1.29.05,11.28-.14,51.64-2.19,85.18-33.64,23.41-21.95,31.91-47.36,35.02-59.06,2.46-10.14,9.85-45.95-8.93-84.46-15.93-32.68-41.65-48.75-51.5-54.25-7.46-4.16-26.8-14.1-52.19-13.73-25.05.36-37.3,10.66-52.3,2.52-8.77-4.76-17.57-15.32-15.81-24.26,3.39-17.24,45.25-24.18,73.61-22.9,32.01,1.45,55.25,13.7,65.24,19.23,15.16,8.4,42.59,26.42,63.18,59.74,35.88,58.07,23.78,118.56,20.6,132.53-2.66,12.88-13.33,56.48-54.25,89.96-46.22,37.81-98.11,35.78-109.87,35.02-9.3-.22-80.01-3.09-127.04-63.86-44.14-57.03-33.43-121.16-31.59-131.16Z"/>
    <path class="cls-1" d="M10.27,521.2V186.46c0-1.52.15-3.02.43-4.51,3.66-18.92,15.51-64.85,56.34-103.83,34.08-32.53,71.28-43.95,88.86-48.13,13.92-3.32,83.07-18.68,149.34,20.98,100,59.84,95.23,186.01,92.01,201.51-2.71,13.05-10.23,18.56-10.23,18.56-5.34,3.55-11.72,5.42-18.29,5.11-2.51-.12-4.84-.54-6.97-1.18-10.99-3.3-17.89-14.27-16.35-25.64,1.67-12.34,2.39-28.15-.26-46.13-2.75-18.64-8.26-33.71-13.16-44.43-17.37-37.99-51.59-55-60.89-59.79-49.63-25.6-118.45-22.58-165.94,16.81-26.41,21.91-38.74,48.87-44.46,65.33-.87,2.51-1.33,5.13-1.34,7.78-.31,106.79,1.59,213.59,1.23,320.38-.54,10.89.88,21.06-12.2,30.72-.16.12-.32.24-.48.36-15.61,11.46-37.64.23-37.64-19.14Z"/>
  </g>
</svg>